HIERARCHY
ROOT hip
{
  OFFSET 0.0 0.0 0.0
  CHANNELS 6 Xposition Yposition Zposition Zrotation Yrotation Xrotation
  JOINT abdomen
  {
    OFFSET 0.0 20.6881 -0.73152
    CHANNELS 3 Zrotation Xrotation Yrotation
    JOINT chest
    {
      OFFSET 0.0 11.7043 -0.48768
      CHANNELS 3 Zrotation Xrotation Yrotation
      JOINT neck
      {
        OFFSET 0.0 22.1894 -2.19456
        CHANNELS 3 Zrotation Xrotation Yrotation
        JOINT head
        {
          OFFSET -0.24384 7.07133 1.2192
          CHANNELS 3 Zrotation Xrotation Yrotation
          JOINT leftEye
          {
            OFFSET 4.14528 8.04674 8.04672
            CHANNELS 3 Zrotation Xrotation Yrotation
            End Site
            {
              OFFSET 1.0 0.0 0.0
            }
          }
          JOINT rightEye
          {
            OFFSET -3.6576 8.04674 8.04672
            CHANNELS 3 Zrotation Xrotation Yrotation
            End Site
            {
              OFFSET 1.0 0.0 0.0
            }
          }
        }
      }
      JOINT rCollar
      {
        OFFSET -2.68224 19.2634 -4.8768
        CHANNELS 3 Zrotation Xrotation Yrotation
        JOINT rShldr
        {
          OFFSET -8.77824 -1.95073 1.46304
          CHANNELS 3 Zrotation Xrotation Yrotation
          JOINT rForeArm
          {
            OFFSET -28.1742 -1.7115 0.48768
            CHANNELS 3 Zrotation Xrotation Yrotation
            JOINT rHand
            {
              OFFSET -22.5879 0.773209 7.07136
              CHANNELS 3 Zrotation Xrotation Yrotation
              JOINT rThumb1
              {
                OFFSET -1.2192 -0.487915 3.41376
                CHANNELS 3 Zrotation Xrotation Yrotation
                JOINT rThumb2
                {
                  OFFSET -3.37035 -0.52449 3.41376
                  CHANNELS 3 Zrotation Xrotation Yrotation
                  End Site
                  {
                    OFFSET -1.78271 -1.18214 1.43049
                  }
                }
              }
              JOINT rIndex1
              {
                OFFSET -7.75947 0.938293 5.60832
                CHANNELS 3 Zrotation Xrotation Yrotation
                JOINT rIndex2
                {
                  OFFSET -2.54057 -0.884171 1.56538
                  CHANNELS 3 Zrotation Xrotation Yrotation
                  End Site
                  {
                    OFFSET -1.62519 -0.234802 1.16502
                  }
                }
              }
              JOINT rMid1
              {
                OFFSET -8.24714 1.18213 3.41376
                CHANNELS 3 Zrotation Xrotation Yrotation
                JOINT rMid2
                {
                  OFFSET -3.10165 -0.590103 1.0647
                  CHANNELS 3 Zrotation Xrotation Yrotation
                  End Site
                  {
                    OFFSET -2.48547 -0.328903 0.83742
                  }
                }
              }
              JOINT rRing1
              {
                OFFSET -8.82822 0.546677 1.51678
                CHANNELS 3 Zrotation Xrotation Yrotation
                JOINT rRing2
                {
                  OFFSET -2.60934 -0.819778 -0.0198488
                  CHANNELS 3 Zrotation Xrotation Yrotation
                  End Site
                  {
                    OFFSET -2.33842 -0.294052 0.168128
                  }
                }
              }
              JOINT rPinky1
              {
                OFFSET -8.27202 -0.0477905 -0.4584
                CHANNELS 3 Zrotation Xrotation Yrotation
                JOINT rPinky2
                {
                  OFFSET -1.82734 -0.647385 -0.700984
                  CHANNELS 3 Zrotation Xrotation Yrotation
                  End Site
                  {
                    OFFSET -1.69225 -0.51767 -0.607171
                  }
                }
              }
            }
          }
        }
      }
      JOINT lCollar
      {
        OFFSET 2.68224 19.2634 -4.8768
        CHANNELS 3 Zrotation Xrotation Yrotation
        JOINT lShldr
        {
          OFFSET 8.77824 -1.95073 1.46304
          CHANNELS 3 Zrotation Xrotation Yrotation
          JOINT lForeArm
          {
            OFFSET 28.1742 -1.7115 0.48768
            CHANNELS 3 Zrotation Xrotation Yrotation
            JOINT lHand
            {
              OFFSET 22.5879 0.773209 7.07136
              CHANNELS 3 Zrotation Xrotation Yrotation
              JOINT lThumb1
              {
                OFFSET 1.2192 -0.487915 3.41376
                CHANNELS 3 Zrotation Xrotation Yrotation
                JOINT lThumb2
                {
                  OFFSET 3.37035 -0.52449 3.41376
                  CHANNELS 3 Zrotation Xrotation Yrotation
                  End Site
                  {
                    OFFSET 1.78271 -1.18214 1.43049
                  }
                }
              }
              JOINT lIndex1
              {
                OFFSET 7.75947 0.938293 5.60832
                CHANNELS 3 Zrotation Xrotation Yrotation
                JOINT lIndex2
                {
                  OFFSET 2.54057 -0.884171 1.56538
                  CHANNELS 3 Zrotation Xrotation Yrotation
                  End Site
                  {
                    OFFSET 1.62519 -0.234802 1.16502
                  }
                }
              }
              JOINT lMid1
              {
                OFFSET 8.24714 1.18213 3.41376
                CHANNELS 3 Zrotation Xrotation Yrotation
                JOINT lMid2
                {
                  OFFSET 3.10165 -0.590103 1.0647
                  CHANNELS 3 Zrotation Xrotation Yrotation
                  End Site
                  {
                    OFFSET 2.48547 -0.328903 0.83742
                  }
                }
              }
              JOINT lRing1
              {
                OFFSET 8.82822 0.546677 1.51678
                CHANNELS 3 Zrotation Xrotation Yrotation
                JOINT lRing2
                {
                  OFFSET 2.60934 -0.819778 -0.0198488
                  CHANNELS 3 Zrotation Xrotation Yrotation
                  End Site
                  {
                    OFFSET 2.33842 -0.294052 0.168128
                  }
                }
              }
              JOINT lPinky1
              {
                OFFSET 8.27202 -0.0477905 -0.4584
                CHANNELS 3 Zrotation Xrotation Yrotation
                JOINT lPinky2
                {
                  OFFSET 1.82734 -0.647385 -0.700984
                  CHANNELS 3 Zrotation Xrotation Yrotation
                  End Site
                  {
                    OFFSET 1.69225 -0.51767 -0.607171
                  }
                }
              }
            }
          }
        }
      }
    }
  }
  JOINT rButtock
  {
    OFFSET -8.77824 4.35084 1.2192
    CHANNELS 3 Zrotation Xrotation Yrotation
    JOINT rThigh
    {
      OFFSET 0.0 -1.70687 -2.19456
      CHANNELS 3 Zrotation Xrotation Yrotation
      JOINT rShin
      {
        OFFSET 0.0 -36.8199 0.73152
        CHANNELS 3 Zrotation Xrotation Yrotation
        JOINT rFoot
        {
          OFFSET 0.73152 -45.1104 -5.12064
          CHANNELS 3 Zrotation Xrotation Yrotation
          End Site
          {
            OFFSET -1.1221 -3.69964 12.103
          }
        }
      }
    }
  }
  JOINT lButtock
  {
    OFFSET 8.77824 4.35084 1.2192
    CHANNELS 3 Zrotation Xrotation Yrotation
    JOINT lThigh
    {
      OFFSET 0.0 -1.70687 -2.19456
      CHANNELS 3 Zrotation Xrotation Yrotation
      JOINT lShin
      {
        OFFSET 0.0 -36.8199 0.73152
        CHANNELS 3 Zrotation Xrotation Yrotation
        JOINT lFoot
        {
          OFFSET -0.73152 -45.1104 -5.12064
          CHANNELS 3 Zrotation Xrotation Yrotation
          End Site
          {
            OFFSET 1.1221 -3.69964 12.103
          }
        }
      }
    }
  }
}
MOTION
Frames: 4
Frame Time: 0.00833333
6.358000000000004 83.8658 -6.8524 -16.4753 85.6964 -16.5731 -0.949252 6.75181 5.26183 -1.06885 1.01543 1.57593 8.2058 4.3221 4.95154 -4.07763 -14.5856 7.67101 -0.0 0.0 0.0 -0.0 0.0 0.0 3.16065e-14 -2.07067e-12 -1.16591e-13 83.7486 29.0217 -3.32718 -16.2112 -8.88491 30.1197 -0.572644 -20.9887 -3.0907 1.97164e-10 5.48593e-10 7.11689e-10 3.34134e-10 9.47463e-10 1.23316e-09 1.97168e-10 5.48592e-10 7.1169e-10 7.73091 5.47488 0.417314 1.97164e-10 5.48592e-10 7.11688e-10 2.90554 0.965183 0.102902 1.97172e-10 5.48591e-10 7.11693e-10 10.2786 0.731801 0.0259123 1.97156e-10 5.48595e-10 7.11694e-10 2.22167 -0.733487 -0.20892 3.16242e-14 -2.07067e-12 -1.16921e-13 -76.106 28.7166 -2.73321 14.1584 -7.083 -25.8733 0.000850024 0.829104 -0.116531 8.80408e-10 8.53154e-11 -1.06241e-09 1.51907e-09 1.46536e-10 -1.83871e-09 8.80405e-10 8.53214e-11 -1.06241e-09 -7.73091 5.47488 -0.417314 8.80406e-10 8.53175e-11 -1.06241e-09 -2.90554 0.965183 -0.102902 8.80397e-10 8.53207e-11 -1.06241e-09 -10.2786 0.731801 -0.0259123 8.80416e-10 8.5323e-11 -1.06242e-09 -2.22167 -0.733487 0.20892 -2.03217e-16 0.0 -3.88251e-19 9.52389 -13.5373 16.748 -0.146687 33.3124 0.905519 -17.8053 -22.7227 -34.2555 2.03217e-16 0.0 3.88251e-19 -5.02687 -14.0657 -18.209 0.193619 34.0837 -0.863647 13.0708 -21.2864 26.7149
6.354000000000013 83.8679 -6.88379 -15.2812 85.7122 -15.353 -0.877206 6.73454 5.21906 -1.04908 0.999966 1.5642 8.19143 4.36638 4.95612 -4.1042 -14.6268 7.68384 -0.0 0.0 0.0 -0.0 0.0 0.0 3.37806e-14 -2.1512e-12 -1.2265e-13 83.7079 29.0416 -3.35455 -16.2089 -8.88272 30.1147 -0.573197 -20.9982 -3.09224 3.43888e-10 6.88255e-10 8.31629e-10 5.86835e-10 1.18835e-09 1.44237e-09 3.43892e-10 6.88255e-10 8.31626e-10 7.73091 5.47488 0.417314 3.43888e-10 6.88253e-10 8.31626e-10 2.90554 0.965183 0.102902 3.43897e-10 6.88253e-10 8.31632e-10 10.2786 0.731801 0.0259123 3.43878e-10 6.88257e-10 8.31632e-10 2.22167 -0.733487 -0.20892 3.38084e-14 -2.1512e-12 -1.22998e-13 -76.2203 28.7398 -2.6747 14.162 -7.08592 -25.8805 0.00083861 0.826873 -0.116218 1.05497e-09 2.47937e-10 -1.17962e-09 1.82009e-09 4.28109e-10 -2.04131e-09 1.05497e-09 2.47945e-10 -1.17961e-09 -7.73091 5.47488 -0.417314 1.05497e-09 2.47941e-10 -1.17961e-09 -2.90554 0.965183 -0.102902 1.05496e-09 2.47944e-10 -1.17962e-09 -10.2786 0.731801 -0.0259123 1.05498e-09 2.47946e-10 -1.17963e-09 -2.22167 -0.733487 0.20892 -2.03217e-16 0.0 -3.88251e-19 9.57663 -13.5409 16.7721 -0.146581 33.3108 0.905719 -17.8248 -22.7177 -34.2922 2.03217e-16 0.0 3.88251e-19 -4.98085 -14.0695 -18.2167 0.193538 34.0797 -0.863926 13.0769 -21.311 26.7064
6.358000000000004 83.8749 -6.915280000000001 -13.8791 85.726 -13.9637 -0.929432 6.72946 5.17899 -1.00517 0.976588 1.55095 8.18356 4.42092 4.96008 -4.15527 -14.6825 7.69124 -0.0 0.0 0.0 -0.0 0.0 0.0 2.38019e-14 -1.30686e-12 -8.02364e-14 83.6525 29.0691 -3.35608 -16.2016 -8.87584 30.0992 -0.573282 -20.9997 -3.09248 2.52464e-10 5.63217e-10 9.31285e-10 4.27071e-10 9.7196e-10 1.61334e-09 2.52468e-10 5.63219e-10 9.31279e-10 7.73091 5.47488 0.417314 2.52464e-10 5.63217e-10 9.3128e-10 2.90554 0.965183 0.102902 2.52473e-10 5.63217e-10 9.31285e-10 10.2786 0.731801 0.0259123 2.52456e-10 5.6322e-10 9.31285e-10 2.22167 -0.733487 -0.20892 2.38261e-14 -1.30686e-12 -8.05474e-14 -76.3376 28.7467 -2.62013 14.1546 -7.08004 -25.8657 0.000925839 0.876695 -0.123221 8.53231e-10 3.5115e-10 -1.17396e-09 1.47124e-09 6.06982e-10 -2.03107e-09 8.5323e-10 3.51158e-10 -1.17396e-09 -7.73091 5.47488 -0.417314 8.53229e-10 3.51155e-10 -1.17396e-09 -2.90554 0.965183 -0.102902 8.53219e-10 3.51157e-10 -1.17396e-09 -10.2786 0.731801 -0.0259123 8.5324e-10 3.51159e-10 -1.17397e-09 -2.22167 -0.733487 0.20892 -2.03217e-16 0.0 -3.88251e-19 9.51881 -13.5613 16.7643 -0.147327 33.3534 0.906885 -17.8162 -22.7239 -34.2667 2.03217e-16 0.0 3.88251e-19 -5.0506 -14.0385 -18.2561 0.192834 34.0352 -0.863017 13.0914 -21.2955 26.7489
6.366000000000014 83.8839 -6.9398800000000005 -12.6224 85.7394 -12.7389 -1.05845 6.73212 5.14009 -0.945128 0.94503 1.53654 8.17931 4.48721 4.9634 -4.22404 -14.7503 7.69519 -0.0 0.0 0.0 -0.0 0.0 0.0 5.74859e-15 1.91809e-13 -3.70547e-15 83.5875 29.102 -3.34371 -16.1909 -8.86578 30.0766 -0.573047 -20.9956 -3.09182 1.32457e-11 2.58942e-10 1.0065e-09 1.13955e-11 4.45876e-10 1.7401e-09 1.32486e-11 2.58946e-10 1.00649e-09 7.73091 5.47488 0.417314 1.32449e-11 2.58944e-10 1.00649e-09 2.90554 0.965183 0.102902 1.32549e-11 2.58944e-10 1.0065e-09 10.2786 0.731801 0.0259123 1.32421e-11 2.58946e-10 1.0065e-09 2.22167 -0.733487 -0.20892 5.75957e-15 1.91806e-13 -3.94463e-15 -76.4612 28.7406 -2.56318 14.1391 -7.06761 -25.8345 0.00111522 0.965523 -0.135708 4.00666e-10 4.29648e-10 -1.06002e-09 6.89257e-10 7.43192e-10 -1.83328e-09 4.00666e-10 4.29655e-10 -1.06002e-09 -7.73091 5.47488 -0.417314 4.00666e-10 4.29654e-10 -1.06002e-09 -2.90554 0.965183 -0.102902 4.00657e-10 4.29655e-10 -1.06002e-09 -10.2786 0.731801 -0.0259123 4.00675e-10 4.29656e-10 -1.06003e-09 -2.22167 -0.733487 0.20892 -2.03217e-16 0.0 -3.88251e-19 9.3919 -13.5941 16.7342 -0.14867 33.4268 0.90866 -17.7869 -22.7355 -34.1982 2.03217e-16 0.0 3.88251e-19 -5.19333 -13.9833 -18.3201 0.191686 33.9621 -0.861369 13.1144 -21.2547 26.8294
